{"title":"Thenindian 2015 Tamil Movies PDVDRip XviD AAC New +Sample ☻rDX☻","uid":13012580,"size":740799309,"categoryP":"video","categoryS":"movies","magnet":"?xt=urn:btih:99e64b4c1bfd2ea47be60bd2d89e5a90bc9ad281&amp;dn=Thenindian+2015+Tamil+Movies+PDVDRip+XviD+AAC+New+%2BSample+%E2%98%BBrDX%E2%98%BB&amp;tr=udp%3A%2F%2Ftracker.leechers-paradise.org%3A6969&amp;tr=udp%3A%2F%2Fzer0day.ch%3A1337&amp;tr=udp%3A%2F%2Fopen.demonii.com%3A1337&amp;tr=udp%3A%2F%2Ftracker.coppersurfer.tk%3A6969&amp;tr=udp%3A%2F%2Fexodus.desync.com%3A6969","seeders":1,"leechers":0,"uploader":"basicssom","files":2,"time":1450267215,"description":"----------------------------------------------------------------\r\nThenindian 2015 Tamil Movies PDVDRip XviD AAC New Source with Sample ~ ☻rDX☻\r\n\r\nSCREEN SHOTS &amp; POSTER:\r\n  \nhttp://doctorhosts.com/2015/12/Thenindian/11.html  \nhttp://doctorhosts.com/2015/12/Thenindian/1.html  \nhttp://doctorhosts.com/2015/12/Thenindian/2.html  \nhttp://doctorhosts.com/2015/12/Thenindian/3.html  \nhttp://doctorhosts.com/2015/12/Thenindian/4.html  \nhttp://doctorhosts.com/2015/12/Thenindian/5.html  \nhttp://doctorhosts.com/2015/12/Thenindian/6.html  \nhttp://doctorhosts.com/2015/12/Thenindian/7.html  \nhttp://doctorhosts.com/2015/12/Thenindian/8.html  \nhttp://doctorhosts.com/2015/12/Thenindian/9.html  \nhttp://doctorhosts.com/2015/12/Thenindian/10.html\r\n\r\nFormat                                   : Matroska\r\nFormat version                           : Version 4 / Version 2\r\nFile size                                : 689 MiB\r\nDuration                                 : 2h 0mn\r\nOverall bit rate                         : 800 Kbps\r\nMovie name                               : Thenindian 2015 Tamil Movies PDVDRip XviD AAC New Source ~ rDX ~\r\n\r\nVideo\r\nID                                       : 1\r\nFormat                                   : AVC\r\nFormat/Info                              : Advanced Video Codec\r\nFormat profile                           :   \r\nFormat settings, CABAC                   : Yes\r\nFormat settings, ReFrames                : 4 frames\r\nCodec ID                                 : V_MPEG4/ISO/AVC\r\nDuration                                 : 2h 0mn\r\nBit rate                                 : 702 Kbps\r\nWidth                                    : 608 pixels\r\nHeight                                   : 256 pixels\r\nDisplay aspect ratio                     : 2.40:1\r\nFrame rate mode                          : Constant\r\nFrame rate                               : 29.970 fps\r\nColor space                              : YUV\r\nChroma subsampling                       : 4:2:0\r\nBit depth                                : 8 bits\r\nScan type                                : Progressive\r\nBits/(Pixel*Frame)                       : 0.150\r\nStream size                              : 592 MiB (86%)\r\nTitle                                    : ~ rDX ~\r\nWriting library                          : XviD\r\nLanguage                                 : Tamil\r\nDefault                                  : Yes\r\nForced                                   : Yes\r\n\r\nAudio\r\nID                                       : 2\r\nFormat                                   : MPEG Audio\r\nFormat version                           : Version 1\r\nFormat profile                           : Layer 3\r\nMode                                     : Joint stereo\r\nMode extension                           : MS Stereo\r\nCodec ID                                 : A_MPEG/L3\r\nCodec ID/Hint                            : MP3\r\nDuration                                 : 2h 0mn\r\nBit rate mode                            : Constant\r\nBit rate                                 : 96.0 Kbps\r\nChannel(s)                               : 2 channels\r\nSampling rate                            : 48.0 KHz\r\nCompression mode                         : Lossy\r\nStream size                              : 82.6 MiB (12%)\r\nTitle                                    : ~ rDX ~\r\nWriting library                          : LAME3.97\r\nLanguage                                 : Tamil\r\nDefault                                  : Yes\r\nForced                                   : Yes\r\n\r\nIMDB                                     \r\nna","torrent":{"xt":"urn:btih:99e64b4c1bfd2ea47be60bd2d89e5a90bc9ad281","amp;dn":"Thenindian+2015+Tamil+Movies+PDVDRip+XviD+AAC+New+%2BSample+%E2%98%BBrDX%E2%98%BB","amp;tr":["udp%3A%2F%2Ftracker.leechers-paradise.org%3A6969","udp%3A%2F%2Fzer0day.ch%3A1337","udp%3A%2F%2Fopen.demonii.com%3A1337","udp%3A%2F%2Ftracker.coppersurfer.tk%3A6969","udp%3A%2F%2Fexodus.desync.com%3A6969"],"infoHash":"99e64b4c1bfd2ea47be60bd2d89e5a90bc9ad281","infoHashBuffer":{"type":"Buffer","data":[153,230,75,76,27,253,46,164,123,230,11,210,216,158,90,144,188,154,210,129]},"announce":[],"urlList":[]}}